<?xml version="1.0" encoding="UTF-8"?>
<svg width="170px" height="170px" viewBox="0 0 170 170" version="1.1" xmlns="http://www.w3.org/2000/svg" xmlns:xlink="http://www.w3.org/1999/xlink">
    <!-- Generator: Sketch 39.1 (31720) - http://www.bohemiancoding.com/sketch -->
    <title>Shape</title>
    <desc>Created with Sketch.</desc>
    <defs></defs>
    <g id="Page-1" stroke="none" stroke-width="1" fill="none" fill-rule="evenodd">
        <g id="instagram" fill="#FFFFFF">
            <g id="Group">
                <path d="M122.406,0 L46.654,0 C20.929,0 0,20.93 0,46.655 L0,122.407 C0,148.133 20.929,169.062 46.654,169.062 L122.406,169.062 C148.133,169.062 169.062,148.132 169.062,122.407 L169.062,46.655 C169.063,20.93 148.133,0 122.406,0 L122.406,0 Z M154.063,122.407 C154.063,139.862 139.862,154.062 122.407,154.062 L46.654,154.062 C29.2,154.063 15,139.862 15,122.407 L15,46.655 C15,29.201 29.2,15 46.654,15 L122.406,15 C139.861,15 154.062,29.201 154.062,46.655 L154.062,122.407 L154.063,122.407 Z" id="Shape"></path>
            </g>
        </g>
    </g>
</svg>